{
  "asset": { "generator": "Khronos glTF Spline I/O v0.0.1", "version": "2.0" },
  "scenes": [{ "nodes": [0] }],
  "nodes": [
    {
      "name": "",
      "children": [1, 2, 3],
      "matrix": [0.01, 0, 0, 0, 0, 0.01, 0, 0, 0, 0, 0.01, 0, 0, 0, 0, 1]
    },
    {
      "name": "",
      "camera": 0,
      "translation": [55.587097278171356, 41.55831409978008, 997.5885831069708],
      "rotation": [
        -0.020775597217602127, 0.027822347254808952, 0.0005783747578398437,
        0.9993967965908858
      ]
    },
    {
      "name": "Directional Light",
      "translation": [
        311.51696078513487, 276.53321115556537, 419.4272928681603
      ],
      "rotation": [
        -0.3475960260275462, 0.15623253279790203, -0.37902262827554783,
        0.8432735295504691
      ],
      "extensions": { "KHR_lights_punctual": { "light": 0 } }
    },
    {
      "name": "suitcase",
      "matrix": [
        1, 0, 0, 0, 0, 1, 0, 0, 0, 0, 1, 0, -2.3962095340590395,
        48.53354046296181, 92.6031711690276, 1
      ],
      "children": [4, 5, 6, 7]
    },
    {
      "name": "Cube",
      "matrix": [
        1, 0, 0, 0, 0, 1, 0, 0, 0, 0, 1, 0, 0, -9.162179846700951,
        -0.25602732023091335, 1
      ],
      "mesh": 0
    },
    {
      "name": "Rectangle 2",
      "matrix": [
        -2.220446049250313e-16, 0, -1.0000000000000002, 0, 0, 1, 0, 0,
        1.0000000000000002, 0, -2.220446049250313e-16, 0, 41.2736328384151,
        -9.192774236159948, 0, 1
      ],
      "mesh": 1
    },
    {
      "name": "Rectangle 3",
      "matrix": [
        -2.220446049250313e-16, 0, -1.0000000000000002, 0, 0, 1, 0, 0,
        1.0000000000000002, 0, -2.220446049250313e-16, 0, -47.7452792089033,
        -9.192774236159948, -1.4210854715202004e-14, 1
      ],
      "mesh": 2
    },
    {
      "name": "Shape",
      "matrix": [
        1, 0, 0, 0, 0, 1, 0, 0, 0, 0, 1, 0, -26.5757912885598,
        58.192774236159835, -5.05137645344773, 1
      ],
      "mesh": 3
    }
  ],
  "cameras": [
    {
      "type": "orthographic",
      "orthographic": {
        "xmag": 1536,
        "ymag": 731,
        "zfar": 100000,
        "znear": -100000
      }
    }
  ],
  "meshes": [
    {
      "primitives": [
        {
          "attributes": { "POSITION": 1, "NORMAL": 2, "TEXCOORD_0": 3 },
          "indices": 0
        }
      ]
    },
    {
      "primitives": [
        {
          "attributes": { "POSITION": 5, "NORMAL": 6, "TEXCOORD_0": 7 },
          "indices": 4
        }
      ]
    },
    {
      "primitives": [
        {
          "attributes": { "POSITION": 9, "NORMAL": 10, "TEXCOORD_0": 11 },
          "indices": 8
        }
      ]
    },
    {
      "primitives": [
        {
          "attributes": { "POSITION": 13, "NORMAL": 14, "TEXCOORD_0": 15 },
          "indices": 12
        }
      ]
    }
  ],
  "buffers": [
    {
      "uri": "data:application/octet-stream;base64,",
      "byteLength": 23496
    },
    {
      "uri": "data:application/octet-stream;base64,",
      "byteLength": 110160
    },
    {
      "uri": "data:application/octet-stream;base64,",
      "byteLength": 110160
    },
    {
      "uri": "data:application/octet-stream;base64,",
      "byteLength": 376464
    }
  ],
  "bufferViews": [
    { "buffer": 0, "byteOffset": 0, "byteLength": 4296, "target": 34963 },
    { "buffer": 0, "byteOffset": 4296, "byteLength": 7200, "target": 34962 },
    { "buffer": 0, "byteOffset": 11496, "byteLength": 7200, "target": 34962 },
    { "buffer": 0, "byteOffset": 18696, "byteLength": 4800, "target": 34962 },
    { "buffer": 1, "byteOffset": 0, "byteLength": 15696, "target": 34963 },
    { "buffer": 1, "byteOffset": 15696, "byteLength": 31488, "target": 34962 },
    { "buffer": 1, "byteOffset": 47184, "byteLength": 31488, "target": 34962 },
    { "buffer": 1, "byteOffset": 78672, "byteLength": 31488, "target": 34962 },
    { "buffer": 2, "byteOffset": 0, "byteLength": 15696, "target": 34963 },
    { "buffer": 2, "byteOffset": 15696, "byteLength": 31488, "target": 34962 },
    { "buffer": 2, "byteOffset": 47184, "byteLength": 31488, "target": 34962 },
    { "buffer": 2, "byteOffset": 78672, "byteLength": 31488, "target": 34962 },
    { "buffer": 3, "byteOffset": 0, "byteLength": 62736, "target": 34963 },
    { "buffer": 3, "byteOffset": 62736, "byteLength": 104576, "target": 34962 },
    {
      "buffer": 3,
      "byteOffset": 167312,
      "byteLength": 104576,
      "target": 34962
    },
    { "buffer": 3, "byteOffset": 271888, "byteLength": 104576, "target": 34962 }
  ],
  "accessors": [
    {
      "bufferView": 0,
      "byteOffset": 0,
      "componentType": 5123,
      "count": 2148,
      "type": "SCALAR",
      "min": [0],
      "max": [599]
    },
    {
      "bufferView": 1,
      "byteOffset": 0,
      "componentType": 5126,
      "count": 600,
      "type": "VEC3",
      "min": [-72, -47, -33],
      "max": [72, 47, 33]
    },
    {
      "bufferView": 2,
      "byteOffset": 0,
      "componentType": 5126,
      "count": 600,
      "type": "VEC3",
      "min": [-1, -1, -1],
      "max": [1, 1, 1]
    },
    {
      "bufferView": 3,
      "byteOffset": 0,
      "componentType": 5126,
      "count": 600,
      "type": "VEC2",
      "min": [0, 0],
      "max": [1, 1]
    },
    {
      "bufferView": 4,
      "byteOffset": 0,
      "componentType": 5125,
      "count": 3924,
      "type": "SCALAR",
      "min": [0],
      "max": [983]
    },
    {
      "bufferView": 5,
      "byteOffset": 0,
      "componentType": 5126,
      "count": 984,
      "type": "VEC3",
      "min": [-35, -49, 0],
      "max": [35, 49, 10]
    },
    {
      "bufferView": 6,
      "byteOffset": 0,
      "componentType": 5126,
      "count": 984,
      "type": "VEC3",
      "min": [-1, -1, -1],
      "max": [1, 1, 1]
    },
    {
      "bufferView": 7,
      "byteOffset": 0,
      "componentType": 5126,
      "count": 984,
      "type": "VEC2",
      "min": [0, 0],
      "max": [1, 1]
    },
    {
      "bufferView": 8,
      "byteOffset": 0,
      "componentType": 5125,
      "count": 3924,
      "type": "SCALAR",
      "min": [0],
      "max": [983]
    },
    {
      "bufferView": 9,
      "byteOffset": 0,
      "componentType": 5126,
      "count": 984,
      "type": "VEC3",
      "min": [-35, -49, 0],
      "max": [35, 49, 10]
    },
    {
      "bufferView": 10,
      "byteOffset": 0,
      "componentType": 5126,
      "count": 984,
      "type": "VEC3",
      "min": [-1, -1, -1],
      "max": [1, 1, 1]
    },
    {
      "bufferView": 11,
      "byteOffset": 0,
      "componentType": 5126,
      "count": 984,
      "type": "VEC2",
      "min": [0, 0],
      "max": [1, 1]
    },
    {
      "bufferView": 12,
      "byteOffset": 0,
      "componentType": 5125,
      "count": 15684,
      "type": "SCALAR",
      "min": [0],
      "max": [3267]
    },
    {
      "bufferView": 13,
      "byteOffset": 0,
      "componentType": 5126,
      "count": 3268,
      "type": "VEC3",
      "min": [-0.18419131636619568, -30.340648651123047, 0],
      "max": [56.481327056884766, 0, 12]
    },
    {
      "bufferView": 14,
      "byteOffset": 0,
      "componentType": 5126,
      "count": 3268,
      "type": "VEC3",
      "min": [-0.9999999403953552, -0.9999891519546509, -1],
      "max": [0.9999732971191406, 1, 1]
    },
    {
      "bufferView": 15,
      "byteOffset": 0,
      "componentType": 5126,
      "count": 3268,
      "type": "VEC2",
      "min": [0, 0],
      "max": [1, 1]
    }
  ],
  "extensions": {
    "KHR_lights_punctual": {
      "lights": [
        {
          "type": "directional",
          "name": "Directional Light",
          "color": [1, 1, 1],
          "intensity": 0.7
        }
      ]
    }
  },
  "extensionsUsed": ["KHR_lights_punctual"]
}
